<mxfile host="app.diagrams.net" modified="2020-11-11T05:59:16.967Z" agent="5.0 (Macintosh; Intel Mac OS X 10_14_0) AppleWebKit/537.36 (KHTML, like Gecko) Chrome/86.0.4240.111 Safari/537.36" etag="7b5VVQGJEVU8XurACtLe" version="13.9.3" type="github">
  <diagram name="Page-1" id="aaaa8250-4180-3840-79b5-4cada1eebb92">
    <mxGraphModel dx="576" dy="794" grid="1" gridSize="10" guides="1" tooltips="1" connect="1" arrows="1" fold="1" page="1" pageScale="1" pageWidth="850" pageHeight="1100" background="#ffffff" math="0" shadow="0">
      <root>
        <mxCell id="0" />
        <mxCell id="1" parent="0" />
        <mxCell id="hVy4ALxRXcnH0B4ln4Fc-5" value="" style="edgeStyle=orthogonalEdgeStyle;rounded=0;orthogonalLoop=1;jettySize=auto;html=1;" edge="1" parent="1" source="hVy4ALxRXcnH0B4ln4Fc-3">
          <mxGeometry relative="1" as="geometry">
            <mxPoint x="925" y="220" as="targetPoint" />
          </mxGeometry>
        </mxCell>
        <mxCell id="hVy4ALxRXcnH0B4ln4Fc-3" value="" style="points=[];aspect=fixed;html=1;align=center;shadow=0;dashed=0;image;image=img/lib/allied_telesis/computer_and_terminals/Personal_Computer_with_Server.svg;" vertex="1" parent="1">
          <mxGeometry x="890" y="110" width="70" height="70" as="geometry" />
        </mxCell>
        <mxCell id="hVy4ALxRXcnH0B4ln4Fc-8" style="edgeStyle=orthogonalEdgeStyle;rounded=0;orthogonalLoop=1;jettySize=auto;html=1;exitX=1;exitY=0.5;exitDx=0;exitDy=0;" edge="1" parent="1">
          <mxGeometry relative="1" as="geometry">
            <mxPoint x="1060" y="245" as="targetPoint" />
            <mxPoint x="981.56" y="245" as="sourcePoint" />
          </mxGeometry>
        </mxCell>
        <mxCell id="hVy4ALxRXcnH0B4ln4Fc-12" style="edgeStyle=orthogonalEdgeStyle;rounded=0;orthogonalLoop=1;jettySize=auto;html=1;exitX=1;exitY=0.5;exitDx=0;exitDy=0;" edge="1" parent="1" source="hVy4ALxRXcnH0B4ln4Fc-10">
          <mxGeometry relative="1" as="geometry">
            <mxPoint x="1260" y="248" as="targetPoint" />
            <Array as="points">
              <mxPoint x="1240" y="248" />
              <mxPoint x="1240" y="248" />
            </Array>
          </mxGeometry>
        </mxCell>
        <mxCell id="hVy4ALxRXcnH0B4ln4Fc-10" value="&lt;font style=&quot;font-size: 16px&quot;&gt;Nginx服务器&lt;/font&gt;" style="rounded=0;whiteSpace=wrap;html=1;fillColor=#FF9933;fontSize=16;" vertex="1" parent="1">
          <mxGeometry x="1059.5" y="225" width="120.5" height="45" as="geometry" />
        </mxCell>
        <mxCell id="hVy4ALxRXcnH0B4ln4Fc-9" value="" style="shape=image;html=1;verticalAlign=top;verticalLabelPosition=bottom;labelBackgroundColor=#ffffff;imageAspect=0;aspect=fixed;image=https://cdn4.iconfinder.com/data/icons/logos-brands-5/24/nginx-128.png;fillColor=#FF9933;" vertex="1" parent="1">
          <mxGeometry x="1080" y="130" width="79" height="79" as="geometry" />
        </mxCell>
        <mxCell id="hVy4ALxRXcnH0B4ln4Fc-11" value="&lt;font style=&quot;font-size: 14px&quot;&gt;Web界面&lt;/font&gt;" style="rounded=0;whiteSpace=wrap;html=1;fillColor=#FF9933;" vertex="1" parent="1">
          <mxGeometry x="865" y="225" width="120" height="45" as="geometry" />
        </mxCell>
        <mxCell id="hVy4ALxRXcnH0B4ln4Fc-19" style="edgeStyle=orthogonalEdgeStyle;rounded=0;orthogonalLoop=1;jettySize=auto;html=1;exitX=1;exitY=0.25;exitDx=0;exitDy=0;" edge="1" parent="1" source="hVy4ALxRXcnH0B4ln4Fc-15">
          <mxGeometry relative="1" as="geometry">
            <mxPoint x="1480" y="195" as="targetPoint" />
          </mxGeometry>
        </mxCell>
        <mxCell id="hVy4ALxRXcnH0B4ln4Fc-20" style="edgeStyle=orthogonalEdgeStyle;rounded=0;orthogonalLoop=1;jettySize=auto;html=1;exitX=1;exitY=0.75;exitDx=0;exitDy=0;" edge="1" parent="1" source="hVy4ALxRXcnH0B4ln4Fc-15">
          <mxGeometry relative="1" as="geometry">
            <mxPoint x="1480" y="300" as="targetPoint" />
          </mxGeometry>
        </mxCell>
        <mxCell id="hVy4ALxRXcnH0B4ln4Fc-15" value="" style="rounded=0;whiteSpace=wrap;html=1;fillColor=#66CC00;" vertex="1" parent="1">
          <mxGeometry x="1260" y="142" width="150" height="211" as="geometry" />
        </mxCell>
        <mxCell id="hVy4ALxRXcnH0B4ln4Fc-16" value="安全检测服务" style="rounded=0;whiteSpace=wrap;html=1;fillColor=#66B2FF;" vertex="1" parent="1">
          <mxGeometry x="1275" y="160" width="125" height="40" as="geometry" />
        </mxCell>
        <mxCell id="hVy4ALxRXcnH0B4ln4Fc-17" value="智能合约分析服务" style="rounded=0;whiteSpace=wrap;html=1;fillColor=#66B2FF;" vertex="1" parent="1">
          <mxGeometry x="1275" y="225" width="125" height="40" as="geometry" />
        </mxCell>
        <mxCell id="hVy4ALxRXcnH0B4ln4Fc-18" value="区块链监测服务" style="rounded=0;whiteSpace=wrap;html=1;fillColor=#66B2FF;" vertex="1" parent="1">
          <mxGeometry x="1275" y="290" width="125" height="40" as="geometry" />
        </mxCell>
        <mxCell id="hVy4ALxRXcnH0B4ln4Fc-21" value="" style="rounded=0;whiteSpace=wrap;html=1;fillColor=#66CC00;" vertex="1" parent="1">
          <mxGeometry x="1480" y="142" width="180" height="211" as="geometry" />
        </mxCell>
        <mxCell id="hVy4ALxRXcnH0B4ln4Fc-22" value="" style="aspect=fixed;html=1;points=[];align=center;image;fontSize=12;image=img/lib/mscae/Cache_Redis_Product.svg;fillColor=#66B2FF;" vertex="1" parent="1">
          <mxGeometry x="1500" y="245.5" width="61.9" height="52" as="geometry" />
        </mxCell>
        <mxCell id="hVy4ALxRXcnH0B4ln4Fc-23" value="" style="outlineConnect=0;dashed=0;verticalLabelPosition=bottom;verticalAlign=top;align=center;html=1;shape=mxgraph.aws3.mysql_db_instance_2;fillColor=#2E73B8;gradientColor=none;" vertex="1" parent="1">
          <mxGeometry x="1580" y="240" width="60" height="63" as="geometry" />
        </mxCell>
        <mxCell id="hVy4ALxRXcnH0B4ln4Fc-24" value="数据层" style="rounded=0;whiteSpace=wrap;html=1;fillColor=#66B2FF;" vertex="1" parent="1">
          <mxGeometry x="1500" y="160" width="140" height="50" as="geometry" />
        </mxCell>
      </root>
    </mxGraphModel>
  </diagram>
</mxfile>
